<svg xmlns="http://www.w3.org/2000/svg" viewBox="0 0 440.49 440.22"><defs><style>.cls-1{fill:#c5c5ff;}</style></defs><g id="Layer_2" data-name="Layer 2"><g id="Layer_5" data-name="Layer 5"><path class="cls-1" d="M222.49.05c117.56-.5,218.89,98.75,218,221.72C439.6,342.92,338.34,440.5,220,440.21,95.22,439.92-1.74,335.44,0,217.19,1.9,91.2,107.41-2.59,222.49.05ZM188.26,116.84l0-1c-13.64.65-27.33.77-40.9,2.09s-27.2,3.49-40.68,6a167.16,167.16,0,0,0-25.76,6.85c-10.32,3.66-15.19,14.73-12,25.09a20.37,20.37,0,0,0,24,14c8.18-1.75,16.25-4,24.44-5.65a281.48,281.48,0,0,1,47.51-5.71c16-.46,32-.67,47.94-.21,14.64.43,29.18,2.41,43.64,4.89a355.12,355.12,0,0,1,53.37,13.34c14.48,4.86,28,11.72,41.46,18.81,6.45,3.39,12.79,3.14,19.2.1,11.65-5.53,16.65-22.13,5.31-32.45a53.77,53.77,0,0,0-10.43-7.32,299.78,299.78,0,0,0-53.42-22.11A310.85,310.85,0,0,0,258,121.42c-13.45-1.69-26.91-3.47-40.43-4.44C207.86,116.28,198,116.84,188.26,116.84ZM183.67,227l0-.65c11.58.87,23.19,1.51,34.75,2.67a264.39,264.39,0,0,1,44.91,8.56c21.32,5.94,41.71,14,60.78,25.34a22,22,0,0,0,8.57,2.57c11.19,1.27,20.51-9.75,17.94-20.71-1.38-5.89-5.17-9.67-10.17-12.34-9.5-5-18.95-10.26-28.74-14.68a274.81,274.81,0,0,0-66.85-20.16C234,195.67,223,194.47,212,193.24c-5.93-.66-11.92-.77-17.88-1.06a262,262,0,0,0-43.93,1.38c-9.59,1.14-19.17,2.62-28.64,4.5-8.86,1.75-17.64,4-26.33,6.47A16.17,16.17,0,0,0,83.26,217.6a16.39,16.39,0,0,0,5.94,16.65c5.25,4.41,11.09,4.67,17.51,2.88A268.61,268.61,0,0,1,183.67,227Zm-1,37.6A198.36,198.36,0,0,0,141,267c-12.71,2-25.35,4.45-38,7a14,14,0,0,0-6.47,3.38,13.31,13.31,0,0,0-3,16c3.18,6.24,7.93,8.73,15,7.54,10.38-1.75,20.73-3.78,31.12-5.48,11.71-1.91,23.44-3.78,35.35-3.57,10.63.18,21.27.42,31.88,1A215.7,215.7,0,0,1,230,295.29a197.6,197.6,0,0,1,51,15.71c7.93,3.69,15.58,8,23.44,11.88a12.15,12.15,0,0,0,13.55-1.58,13.45,13.45,0,0,0,5.27-13.17c-.75-5.19-4.08-8.4-8.45-11a239.66,239.66,0,0,0-106-32.5C200.11,264.09,191.39,264.55,182.69,264.55Z"/></g></g></svg>