<svg xmlns="http://www.w3.org/2000/svg" viewBox="0 0 509.93 356.18"><defs><style>.cls-1{fill:#306;}</style></defs><g id="Layer_2" data-name="Layer 2"><g id="Layer_5" data-name="Layer 5"><path class="cls-1" d="M509.69,136.78c-.41-26.23-2.48-52.47-8.58-78.15-6.66-28.05-27-47.23-55.59-50.4S388,2.07,359.1,1.4C302.1.08,245-.4,188,.36c-37.36.49-74.7,3.48-112,5.91-14.85,1-29.21,4.37-41.51,13.78C19,32,10.37,47.91,8.22,67,5.33,92.58,3.37,118.25,1,143.88c-.36,3.93-.68,7.87-1,11.8V199.6c.7,11.58,1,23.21,2.18,34.74,2,20,3.55,40.11,7.19,59.82,5.76,31.14,27.56,50.07,59,54,54.56,6.92,109.43,7.87,164.28,8q70.82.13,141.64-2.31a639.49,639.49,0,0,0,73.91-6.62c29.91-4.52,48-23.41,53.44-52.94a422,422,0,0,0,6.93-58.83C510,202.62,510.2,169.67,509.69,136.78ZM204.75,254.59V101.17l133.19,76.71Z"/></g></g></svg>