<svg xmlns="http://www.w3.org/2000/svg" viewBox="0 0 447.21 447.23"><defs><style>.cls-1{fill:#c9c9ff;}</style></defs><g id="Layer_2" data-name="Layer 2"><g id="Layer_5" data-name="Layer 5"><path class="cls-1" d="M223.65,0q45.42,0,90.83,0c26,0,51.06,4.72,73.44,18.71,36.52,22.82,55,56.64,58.59,99,.7,8.28.66,16.62.67,24.94q.07,85.6,0,171.21c0,26.2-4.48,51.38-18.16,74.15-19.71,32.8-49.52,50.69-86.66,56.89a182.63,182.63,0,0,1-29.29,2.14c-60.55.18-121.11.1-181.66.09-32.09,0-61.47-8.3-86.59-29C19,397,5.42,369,1.4,336.17A208.71,208.71,0,0,1,.17,311.28C.11,249.22-.29,187.15.4,125.1c.42-37.35,13.29-70,42.18-95A117.42,117.42,0,0,1,116.89,1C152.44-.18,188.06.72,223.65.72Zm-.09,405.88c28.1,0,56.21.05,84.32,0a195.69,195.69,0,0,0,20.42-.78c33.25-3.58,58.38-19,72-50.55,5.49-12.69,7.25-26.18,7.25-39.95q0-88.83-.05-177.67a147.84,147.84,0,0,0-.95-19.41c-3.5-26.07-14.38-48-37.24-62.48-14.87-9.43-31.49-13.27-48.91-13.31q-95.05-.2-190.1,0a113.45,113.45,0,0,0-15.41,1c-32,4.4-55.53,20.08-67.28,51.1C43,106.13,41.43,119,41.43,132.05q0,91.08.07,182.16A135.35,135.35,0,0,0,43.38,337c5.28,30.16,21.44,51.74,50.69,62.56,12.47,4.62,25.46,6.26,38.68,6.28Q178.16,405.94,223.56,405.89Z"/><path class="cls-1" d="M338.87,223a115.34,115.34,0,1,1-230.68-.64c.22-63.4,52.18-115,115.62-114.85C287.05,107.65,339,159.74,338.87,223ZM223.41,296.64c40.65.09,74.1-33.19,74.16-73.79.06-40.42-33.64-74.11-74.06-74S150,182,149.77,222.5A74,74,0,0,0,223.41,296.64Z"/><path class="cls-1" d="M343.47,130.72a26.06,26.06,0,1,1,.28-52.11,26.06,26.06,0,0,1-.28,52.11Z"/></g></g></svg>