<svg xmlns="http://www.w3.org/2000/svg" viewBox="0 0 442.87 442.86"><defs><style>.cls-1{fill:#c5c5ff;}</style></defs><g id="Layer_2" data-name="Layer 2"><g id="Layer_5" data-name="Layer 5"><path class="cls-1" d="M384.05,442.86H256q0-76.31-.09-152.61c0-4.08,1.2-4.95,5-4.89,14.26.21,28.53,0,42.8.13,2.76,0,4-.59,4.4-3.64,2.68-18.53,5.44-37.05,8.62-55.5.78-4.57-.44-5.06-4.49-5-17.58.21-35.16.06-52.74.13-2.35,0-3.63-.19-3.59-3.16.17-13.54-.11-27.09.15-40.63.17-8.73,2.71-16.85,9.13-23.15,7.13-7,16.2-9,25.81-9.17,8.35-.12,16.72-.13,25.07,0,2.91.05,4-.68,4-3.82q-.21-23.56,0-47.13c0-2.58-.59-3.91-3.38-4.24C296.85,87.8,277,85,256.89,87.35c-19.53,2.26-36.76,9.46-50,24.5-13.84,15.68-19.13,34.64-19.8,55-.55,16.7-.29,33.43-.13,50.15,0,3.5-.71,4.61-4.42,4.55-16-.22-32,0-48-.18-3.3,0-4,.91-4,4.09q.23,28.09,0,56.2c0,3,.76,3.91,3.83,3.88,15.85-.15,31.7.05,47.55-.15,3.83-.05,5,.81,5,4.89-.15,50.87-.09,101.74-.09,152.61H58c-.47-1-1.44-.78-2.24-.93C22.49,435.81,0,409.07,0,375.29Q0,221.38,0,67.46A67.82,67.82,0,0,1,3.38,45.78C12.76,17.75,37.69,0,67.87,0q153.49,0,307,0c1.73,0,3.47,0,5.19.12,25.58,2.22,44.36,14.6,56.19,37.5,3.46,6.7,4.64,14.06,6.65,21.19V384.91c-1.15.58-.8,1.73-1,2.66-4.46,22.69-17,39.1-37.87,49.23C397.65,439.9,390.72,440.9,384.05,442.86Z"/></g></g></svg>